<svg viewBox="0 0 540 540" fill="none" xmlns="http://www.w3.org/2000/svg">
            <g clip-path="url(#clip0_30_8)">
            <circle cx="270" cy="270" r="270" fill="#E3F6FD"></circle>
            <path d="M172.184 190.48L147.8 122.8H153.368L174.488 182.608L194.168 122.608H198.008L217.688 182.608L238.808 122.8H243.992L219.608 190.48H215.576L195.896 132.112L176.216 190.48H172.184ZM272.037 191.152C259.173 191.152 248.037 180.88 248.037 165.616V165.424C248.037 151.216 258.021 139.888 271.269 139.888C284.997 139.888 293.733 151.024 293.733 165.52C293.733 166.384 293.733 166.672 293.637 167.44H253.029C253.893 179.632 262.629 186.736 272.229 186.736C279.813 186.736 284.997 183.376 289.029 179.056L292.293 181.936C287.301 187.312 281.445 191.152 272.037 191.152ZM253.029 163.216H288.645C287.973 153.328 282.309 144.208 271.077 144.208C261.381 144.208 253.893 152.368 253.029 163.216ZM332.323 191.152C322.531 191.152 316.195 185.584 312.163 179.44V190H307.459V119.92H312.163V151.984C316.387 145.552 322.627 139.888 332.323 139.888C344.131 139.888 356.131 149.392 356.131 165.328V165.52C356.131 181.456 344.131 191.152 332.323 191.152ZM331.843 186.64C342.499 186.64 351.043 178.864 351.043 165.712V165.52C351.043 152.656 342.115 144.4 331.843 144.4C321.667 144.4 311.875 152.944 311.875 165.424V165.616C311.875 178.192 321.667 186.64 331.843 186.64ZM172.184 305.48L147.8 237.8H153.368L174.488 297.608L194.168 237.608H198.008L217.688 297.608L238.808 237.8H243.992L219.608 305.48H215.576L195.896 247.112L176.216 305.48H172.184ZM273.093 306.152C258.597 306.152 248.037 294.44 248.037 280.712V280.52C248.037 266.792 258.693 254.888 273.285 254.888C287.781 254.888 298.341 266.6 298.341 280.328V280.52C298.341 294.248 287.685 306.152 273.093 306.152ZM273.285 301.736C284.901 301.736 293.253 292.232 293.253 280.712V280.52C293.253 268.712 284.421 259.304 273.093 259.304C261.477 259.304 253.125 268.808 253.125 280.328V280.52C253.125 292.328 261.957 301.736 273.285 301.736ZM312.803 305V256.04H317.507V269.96C321.347 261.224 329.507 254.888 339.203 255.272V260.456H338.723C327.395 260.456 317.507 269 317.507 284.936V305H312.803ZM351.241 305V234.92H355.945V287.432L386.281 256.04H392.521L371.113 277.736L393.193 305H387.241L367.849 281.096L355.945 293.096V305H351.241ZM175.736 420.96C164.984 420.96 156.728 417.408 148.664 410.208L151.928 406.464C159.32 413.28 166.136 416.448 176.024 416.448C186.104 416.448 193.016 410.784 193.016 403.104V402.912C193.016 395.808 189.272 391.68 174.008 388.608C157.88 385.344 151.352 379.872 151.352 369.696V369.504C151.352 359.52 160.472 351.84 172.952 351.84C182.744 351.84 189.176 354.528 195.992 360L192.824 363.936C186.488 358.464 180.152 356.352 172.76 356.352C162.872 356.352 156.344 362.016 156.344 369.024V369.216C156.344 376.32 159.992 380.64 175.928 383.904C191.48 387.072 198.008 392.64 198.008 402.432V402.624C198.008 413.472 188.696 420.96 175.736 420.96ZM213.334 420V349.92H218.038V380.16C221.302 374.4 226.774 369.888 235.702 369.888C248.086 369.888 255.286 378.336 255.286 390.048V420H250.582V390.912C250.582 380.832 244.918 374.208 235.03 374.208C225.43 374.208 218.038 381.504 218.038 391.68V420H213.334ZM293.905 421.152C279.409 421.152 268.849 409.44 268.849 395.712V395.52C268.849 381.792 279.505 369.888 294.097 369.888C308.593 369.888 319.153 381.6 319.153 395.328V395.52C319.153 409.248 308.497 421.152 293.905 421.152ZM294.097 416.736C305.713 416.736 314.065 407.232 314.065 395.712V395.52C314.065 383.712 305.233 374.304 293.905 374.304C282.289 374.304 273.937 383.808 273.937 395.328V395.52C273.937 407.328 282.769 416.736 294.097 416.736ZM333.616 435.36V371.04H338.32V381.984C342.544 375.552 348.784 369.888 358.48 369.888C370.288 369.888 382.288 379.392 382.288 395.328V395.52C382.288 411.456 370.288 421.152 358.48 421.152C348.688 421.152 342.352 415.584 338.32 409.44V435.36H333.616ZM358 416.64C368.656 416.64 377.2 408.864 377.2 395.712V395.52C377.2 382.656 368.272 374.4 358 374.4C347.824 374.4 338.032 382.944 338.032 395.424V395.616C338.032 408.192 347.824 416.64 358 416.64Z" fill="#0AA6E0"></path>
            </g>
            <defs>
            <clipPath id="clip0_30_8">
            <rect width="540" height="540" fill="white"></rect>
            </clipPath>
            </defs>
            </svg>
